<?xml version="1.0" encoding="UTF-8"?>
<svg id="Calque_1" xmlns="http://www.w3.org/2000/svg" version="1.1" viewBox="0 0 175.55 198.74">
  <!-- Generator: Adobe Illustrator 30.0.0, SVG Export Plug-In . SVG Version: 2.1.1 Build 123)  -->
  <defs>
    <style>
      .st0 {
        fill: #f2f2f2;
      }

      .st1 {
        fill: #fff;
      }

      .st2 {
        fill: #ddeffc;
      }

      .st3 {
        fill: #6f92ba;
      }

      .st4 {
        fill: #010101;
      }
    </style>
  </defs>
  <g id="Box_x5F_wallet_x5F_pop-up">
    <path class="st3" d="M168.67,0H6.88C3.08,0,0,3.08,0,6.88v184.99c0,3.8,3.08,6.88,6.88,6.88h161.8c3.8,0,6.88-3.08,6.88-6.88V6.88c0-3.8-3.08-6.88-6.88-6.88h0Z"/>
    <path class="st2" d="M163.72,27.29H11.83c-3.57,0-6.46,2.56-6.46,5.72v153.93c0,3.16,2.89,5.72,6.46,5.72h151.9c3.57,0,6.46-2.56,6.46-5.72V33.01c0-3.16-2.89-5.72-6.46-5.72h0Z"/>
    <path class="st0" d="M168.67,4c1.59,0,2.88,1.29,2.88,2.88v184.99c0,1.59-1.29,2.88-2.88,2.88H6.88c-1.59,0-2.88-1.29-2.88-2.88V6.88c0-1.59,1.29-2.88,2.88-2.88h161.8M168.67,0H6.88C3.08,0,0,3.08,0,6.88v184.99c0,3.8,3.08,6.88,6.88,6.88h161.8c3.8,0,6.88-3.08,6.88-6.88V6.88c0-3.8-3.08-6.88-6.88-6.88h0Z"/>
    <path class="st4" d="M168.67,2c2.69,0,4.88,2.19,4.88,4.88v184.99c0,2.69-2.19,4.88-4.88,4.88H6.88c-2.69,0-4.88-2.19-4.88-4.88V6.88c0-2.69,2.19-4.88,4.88-4.88h161.8M168.67,0H6.88C3.08,0,0,3.08,0,6.88v184.99c0,3.8,3.08,6.88,6.88,6.88h161.8c3.8,0,6.88-3.08,6.88-6.88V6.88c0-3.8-3.08-6.88-6.88-6.88h0Z"/>
  </g>
  <g id="Text_x5F_wallet">
    <g>
      <path class="st4" d="M79.32,16.84h1.25c-.18-1.59-.37-3.55-.55-5.88-.37,2.68-.6,4.64-.7,5.88Z"/>
      <path class="st4" d="M113.15,6.08h-53.91l.23,1.95,1.63,14.01.18,1.55h51.45v-11.21h2.16v-6.3h-1.75Z"/>
    </g>
    <g>
      <path class="st1" d="M75.66,7.83l-1.62,14.01h-4.55c-.42-2.15-.78-4.6-1.1-7.35-.15,1.18-.48,3.63-1.02,7.35h-4.52l-1.63-14.01h3.54l.39,4.89.37,4.73c.13-2.45.47-5.65,1.01-9.61h3.78c.05.41.18,1.95.4,4.62l.4,5.33c.21-3.39.55-6.71,1.02-9.95h3.54Z"/>
      <path class="st1" d="M82.5,7.83l2.08,14.01h-3.72l-.2-2.52h-1.3l-.22,2.52h-3.77l1.86-14.01h5.27ZM80.57,16.84c-.18-1.59-.37-3.55-.55-5.88-.37,2.68-.6,4.64-.7,5.88h1.25Z"/>
      <path class="st1" d="M88.85,7.83v11.21h2.22v2.8h-5.86V7.83h3.64Z"/>
      <path class="st1" d="M95.59,7.83v11.21h2.22v2.8h-5.86V7.83h3.64Z"/>
      <path class="st1" d="M98.68,7.83h6.08v2.8h-2.43v2.66h2.28v2.67h-2.28v3.08h2.67v2.8h-6.32V7.83Z"/>
      <path class="st1" d="M113.15,7.83v2.8h-2.16v11.21h-3.64v-11.21h-2.16v-2.8h7.96Z"/>
    </g>
  </g>
</svg>