<?xml version="1.0" encoding="UTF-8"?>
<svg id="Calque_1" xmlns="http://www.w3.org/2000/svg" version="1.1" xmlns:xlink="http://www.w3.org/1999/xlink" viewBox="0 0 117.1 42.27">
  <!-- Generator: Adobe Illustrator 30.0.0, SVG Export Plug-In . SVG Version: 2.1.1 Build 123)  -->
  <defs>
    <style>
      .st0 {
        fill: #2f5a87;
      }

      .st1 {
        fill: #fff;
      }

      .st2 {
        fill: #1e1e1c;
      }

      .st3 {
        fill: #ffd255;
      }

      .st4 {
        fill: #3986c7;
      }

      .st5 {
        fill: #010101;
      }

      .st6 {
        fill: url(#Dégradé_sans_nom_217);
      }

      .st7 {
        fill: url(#Dégradé_sans_nom_238);
      }
    </style>
    <radialGradient id="Dégradé_sans_nom_217" data-name="Dégradé sans nom 217" cx="32.9" cy="18.61" fx="32.9" fy="18.61" r="5.26" gradientUnits="userSpaceOnUse">
      <stop offset="0" stop-color="#f19f0e"/>
      <stop offset="1" stop-color="#fff" stop-opacity="0"/>
    </radialGradient>
    <radialGradient id="Dégradé_sans_nom_238" data-name="Dégradé sans nom 238" cx="32.9" cy="18.61" fx="32.9" fy="18.61" r="2.49" gradientUnits="userSpaceOnUse">
      <stop offset="0" stop-color="#f2a405"/>
      <stop offset="1" stop-color="#fff" stop-opacity="0"/>
    </radialGradient>
  </defs>
  <rect class="st0" x="2.83" y="6.27" width="111.64" height="33" rx="7.99" ry="7.99"/>
  <rect class="st4" x="2.83" y="2.83" width="111.64" height="32.76" rx="7.99" ry="7.99"/>
  <g>
    <path class="st3" d="M32.9,29.08c-5.78,0-10.48-4.7-10.48-10.48s4.7-10.48,10.48-10.48,10.48,4.7,10.48,10.48-4.7,10.48-10.48,10.48Z"/>
    <path class="st2" d="M32.9,8.63c5.51,0,9.98,4.47,9.98,9.98s-4.47,9.98-9.98,9.98-9.98-4.47-9.98-9.98,4.47-9.98,9.98-9.98M32.9,7.63c-6.05,0-10.98,4.92-10.98,10.98s4.92,10.98,10.98,10.98,10.98-4.92,10.98-10.98-4.92-10.98-10.98-10.98h0Z"/>
  </g>
  <circle class="st6" cx="32.9" cy="18.61" r="5.26"/>
  <circle class="st7" cx="32.9" cy="18.61" r="2.49"/>
  <g>
    <g>
      <path class="st1" d="M52.2,26.02c-1.28,0-2.44-.27-3.45-.82l-.26-.14v-3.58l.72.34c.52.25,1.07.48,1.64.7.52.2,1.04.29,1.55.29.44,0,.76-.08.91-.23.16-.16.23-.35.23-.61,0-.2-.05-.35-.17-.48-.16-.18-.38-.36-.67-.52-.32-.19-.69-.4-1.11-.61-.28-.15-.57-.32-.89-.52-.34-.21-.67-.48-.97-.8-.32-.33-.59-.73-.79-1.2-.21-.47-.31-1.04-.31-1.68,0-1.27.4-2.28,1.2-3,.78-.71,1.84-1.07,3.15-1.07.64,0,1.25.08,1.83.25.56.16,1.15.39,1.76.68l.41.2-1.13,3-.49-.22c-.5-.22-.95-.4-1.34-.52-.36-.11-.74-.17-1.12-.17-.32,0-.56.07-.7.21-.15.14-.21.32-.21.56,0,.29.1.49.33.65.34.24.86.55,1.55.92.6.32,1.13.65,1.57,1,.46.37.83.82,1.08,1.33.26.51.39,1.15.39,1.88,0,1.26-.42,2.28-1.25,3.04-.82.75-1.97,1.13-3.43,1.13Z"/>
      <path class="st5" d="M52.96,12.59c.59,0,1.16.08,1.69.23s1.09.37,1.68.65l-.78,2.08c-.52-.23-.99-.42-1.4-.55-.41-.13-.84-.19-1.27-.19-.46,0-.81.12-1.05.35-.24.23-.37.54-.37.92,0,.45.18.8.54,1.06.36.26.9.58,1.61.95.58.31,1.08.62,1.49.95.41.33.72.72.95,1.16.22.45.33,1,.33,1.66,0,1.12-.36,2-1.09,2.67-.73.66-1.76,1-3.09,1-1.2,0-2.27-.25-3.21-.76v-2.48c.54.26,1.1.5,1.68.71s1.15.33,1.73.33,1.02-.13,1.26-.38c.25-.25.37-.57.37-.96,0-.32-.1-.59-.29-.81-.2-.22-.46-.43-.79-.62-.33-.19-.71-.4-1.13-.63-.27-.14-.55-.31-.86-.5-.31-.19-.6-.43-.88-.72-.28-.29-.51-.64-.69-1.05-.18-.41-.27-.9-.27-1.48,0-1.13.34-2,1.03-2.63.69-.63,1.63-.94,2.82-.94M52.96,11.59c-1.44,0-2.61.4-3.49,1.2-.9.82-1.36,1.96-1.36,3.37,0,.71.12,1.35.36,1.88.23.52.53.97.89,1.34.33.34.69.63,1.07.87.34.21.64.39.92.54.41.22.77.42,1.09.6.24.14.42.28.55.43.02.02.04.05.04.15,0,.16-.04.21-.09.26-.03.02-.19.08-.55.08-.45,0-.91-.09-1.37-.26-.55-.21-1.09-.44-1.6-.68l-1.43-.68v4.67l.53.28c1.09.58,2.33.88,3.68.88,1.59,0,2.85-.42,3.77-1.26.94-.86,1.42-2,1.42-3.41,0-.81-.15-1.52-.44-2.1-.29-.57-.69-1.08-1.21-1.49-.46-.37-1.01-.73-1.65-1.06-.66-.35-1.16-.65-1.49-.88-.1-.07-.12-.12-.12-.24,0-.14.04-.17.06-.19.04-.03.15-.07.36-.07.33,0,.66.05.98.15.37.12.81.29,1.29.5l.97.44.37-1,.78-2.08.32-.85-.82-.4c-.63-.31-1.25-.55-1.84-.71-.62-.18-1.29-.27-1.97-.27h0Z"/>
    </g>
    <g>
      <polygon class="st1" points="64.85 25.84 64.85 20.42 61.35 20.42 61.35 25.84 57.95 25.84 57.95 12.27 61.35 12.27 61.35 17.2 64.85 17.2 64.85 12.27 68.25 12.27 68.25 25.84 64.85 25.84"/>
      <path class="st5" d="M67.75,12.77v12.57h-2.4v-5.42h-4.5v5.42h-2.4v-12.57h2.4v4.93h4.5v-4.93h2.4M68.75,11.77h-4.4v4.93h-2.5v-4.93h-4.4v14.57h4.4v-5.42h2.5v5.42h4.4v-14.57h0Z"/>
    </g>
    <g>
      <path class="st1" d="M75.52,26.02c-1.33,0-2.44-.3-3.33-.9-.88-.59-1.54-1.43-1.97-2.5-.41-1.03-.62-2.24-.62-3.6s.21-2.57.62-3.59c.42-1.05,1.08-1.89,1.97-2.48.88-.59,2-.88,3.34-.88s2.44.3,3.32.89c.88.59,1.54,1.42,1.96,2.48.41,1.02.62,2.23.62,3.59s-.21,2.57-.62,3.59c-.42,1.06-1.08,1.9-1.96,2.49-.88.59-2,.9-3.33.9ZM75.53,15.29c-.84,0-1.42.29-1.78.89-.41.67-.61,1.63-.61,2.86s.21,2.18.61,2.85c.36.6.94.89,1.77.89s1.43-.29,1.78-.89c.4-.68.6-1.64.6-2.85s-.2-2.19-.6-2.86c-.35-.59-.93-.88-1.76-.88Z"/>
      <path class="st5" d="M75.53,12.57c1.23,0,2.24.27,3.04.8.8.53,1.39,1.29,1.77,2.25.39.97.58,2.1.58,3.41s-.19,2.44-.58,3.41c-.39.97-.98,1.72-1.77,2.26-.8.54-1.81.81-3.05.81s-2.25-.27-3.05-.81c-.8-.54-1.39-1.3-1.78-2.27-.39-.97-.58-2.11-.58-3.42s.19-2.44.58-3.4c.39-.96.98-1.71,1.78-2.25.8-.53,1.82-.8,3.06-.8M75.52,23.28c1.03,0,1.77-.38,2.21-1.14.45-.76.67-1.79.67-3.11s-.22-2.37-.67-3.12c-.45-.75-1.18-1.13-2.2-1.13s-1.75.38-2.21,1.13c-.46.75-.68,1.79-.68,3.12s.23,2.35.68,3.11c.46.76,1.19,1.14,2.2,1.14M75.53,11.57c-1.44,0-2.65.33-3.62.97-.97.65-1.69,1.56-2.15,2.7-.43,1.08-.65,2.35-.65,3.77s.22,2.7.65,3.79c.46,1.16,1.18,2.08,2.15,2.73.97.65,2.18.98,3.61.98s2.65-.33,3.62-.98c.96-.65,1.68-1.57,2.14-2.72.43-1.08.65-2.36.65-3.78s-.22-2.69-.65-3.78c-.46-1.15-1.18-2.07-2.14-2.71-.96-.64-2.17-.97-3.6-.97h0ZM75.52,22.28c-.84,0-1.16-.35-1.34-.65-.36-.6-.54-1.47-.54-2.59s.18-2.01.54-2.6c.18-.3.5-.65,1.36-.65s1.16.34,1.34.64c.35.59.53,1.47.53,2.61s-.18,2-.53,2.6c-.18.3-.49.64-1.35.64h0Z"/>
    </g>
    <g>
      <path class="st1" d="M82.78,25.84v-13.57h4.13c1.6,0,2.8.4,3.57,1.2.76.79,1.15,1.88,1.15,3.23,0,.79-.15,1.55-.46,2.25-.32.73-.85,1.33-1.58,1.77-.72.43-1.68.65-2.88.65h-.53v4.47h-3.4ZM86.48,18.18c.56,0,1.01-.12,1.31-.35.27-.2.4-.55.4-1.05,0-.95-.41-1.33-1.41-1.33h-.6v2.73h.3Z"/>
      <path class="st5" d="M86.91,12.77c1.46,0,2.53.35,3.21,1.05.67.7,1.01,1.66,1.01,2.88,0,.73-.14,1.41-.41,2.05-.28.64-.73,1.15-1.38,1.54-.64.39-1.51.58-2.62.58h-1.03v4.47h-2.4v-12.57h3.63M85.68,18.68h.8c.68,0,1.22-.15,1.61-.45.4-.3.6-.78.6-1.45,0-1.22-.64-1.83-1.91-1.83h-1.1v3.73M86.91,11.77h-4.63v14.57h4.4v-4.47h.03c1.28,0,2.34-.24,3.13-.73.82-.49,1.42-1.17,1.78-2,.33-.76.5-1.59.5-2.45,0-1.48-.43-2.69-1.29-3.57-.87-.9-2.19-1.35-3.93-1.35h0ZM86.68,15.95h.1c.77,0,.91.22.91.83,0,.33-.07.55-.2.65-.18.14-.46.22-.81.24v-1.73h0Z"/>
    </g>
  </g>
  <path class="st5" d="M105.88,3c4.54,0,8.22,3.69,8.22,8.22v19.82c0,4.54-3.69,8.22-8.22,8.22H11.22c-4.54,0-8.22-3.69-8.22-8.22V11.22C3,6.69,6.69,3,11.22,3h94.65M105.88,0H11.22C5.03,0,0,5.03,0,11.22v19.82c0,6.2,5.03,11.22,11.22,11.22h94.65c6.2,0,11.22-5.03,11.22-11.22V11.22c0-6.2-5.03-11.22-11.22-11.22h0Z"/>
</svg>